{
  "accessors": [
    {
      "bufferView": 2,
      "componentType": 5126,
      "count": 8410,
      "max": [
        8.584980010986328,
        -14.16759967803955,
        12.98859977722168
      ],
      "min": [
        5.105649948120117,
        -14.505399703979492,
        10.926600456237793
      ],
      "type": "VEC3"
    },
    {
      "bufferView": 2,
      "byteOffset": 100920,
      "componentType": 5126,
      "count": 8410,
      "max": [
        1.0,
        1.0,
        1.0
      ],
      "min": [
        -1.0,
        -1.0,
        -1.0
      ],
      "type": "VEC3"
    },
    {
      "bufferView": 1,
      "componentType": 5126,
      "count": 8410,
      "max": [
        2.1375699043273926,
        2.445539951324463
      ],
      "min": [
        1.7034499645233154,
        2.190890073776245
      ],
      "type": "VEC2"
    },
    {
      "bufferView": 0,
      "componentType": 5125,
      "count": 28224,
      "type": "SCALAR"
    },
    {
      "bufferView": 2,
      "byteOffset": 201840,
      "componentType": 5126,
      "count": 1716,
      "max": [
        8.596739768981934,
        -14.33650016784668,
        12.988499641418457
      ],
      "min": [
        5.093890190124512,
        -14.525400161743164,
        10.974800109863281
      ],
      "type": "VEC3"
    },
    {
      "bufferView": 2,
      "byteOffset": 222432,
      "componentType": 5126,
      "count": 1716,
      "max": [
        0.8184919953346252,
        -0.0,
        0.8569671511650085
      ],
      "min": [
        -0.8184919953346252,
        -1.0,
        -0.9834901690483093
      ],
      "type": "VEC3"
    },
    {
      "bufferView": 1,
      "byteOffset": 67280,
      "componentType": 5126,
      "count": 1716,
      "max": [
        0.0,
        1.0
      ],
      "min": [
        0.0,
        1.0
      ],
      "type": "VEC2"
    },
    {
      "bufferView": 0,
      "byteOffset": 112896,
      "componentType": 5125,
      "count": 6012,
      "type": "SCALAR"
    }
  ],
  "asset": {
    "extras": {
      "author": "ramdom suff maker (https://sketchfab.com/hhkii7531)",
      "license": "CC-BY-4.0 (http://creativecommons.org/licenses/by/4.0/)",
      "source": "https://sketchfab.com/3d-models/smiley-for-the-backrooms-a484afaf31b142c1ad827ca6f0fe235c",
      "title": "Smiley for the backrooms"
    },
    "generator": "Sketchfab-16.68.0",
    "version": "2.0"
  },
  "bufferViews": [
    {
      "buffer": 0,
      "byteLength": 136944,
      "name": "floatBufferViews",
      "target": 34963
    },
    {
      "buffer": 0,
      "byteLength": 81008,
      "byteOffset": 136944,
      "byteStride": 8,
      "name": "floatBufferViews",
      "target": 34962
    },
    {
      "buffer": 0,
      "byteLength": 243024,
      "byteOffset": 217952,
      "byteStride": 12,
      "name": "floatBufferViews",
      "target": 34962
    }
  ],
  "buffers": [
    {
      "byteLength": 460976,
      "uri": "scene.bin"
    }
  ],
  "materials": [
    {
      "doubleSided": true,
      "name": "Smile1Mtl",
      "pbrMetallicRoughness": {
        "metallicFactor": 0.0,
        "roughnessFactor": 0.6
      }
    },
    {
      "doubleSided": true,
      "name": "Smile2Mtl",
      "pbrMetallicRoughness": {
        "metallicFactor": 0.0,
        "roughnessFactor": 0.6
      }
    }
  ],
  "meshes": [
    {
      "name": "Object_0",
      "primitives": [
        {
          "attributes": {
            "NORMAL": 1,
            "POSITION": 0,
            "TEXCOORD_0": 2
          },
          "indices": 3,
          "material": 0,
          "mode": 4
        }
      ]
    },
    {
      "name": "Object_1",
      "primitives": [
        {
          "attributes": {
            "NORMAL": 5,
            "POSITION": 4,
            "TEXCOORD_0": 6
          },
          "indices": 7,
          "material": 1,
          "mode": 4
        }
      ]
    }
  ],
  "nodes": [
    {
      "children": [
        1
      ],
      "matrix": [
        1.0,
        0.0,
        0.0,
        0.0,
        0.0,
        2.220446049250313e-16,
        -1.0,
        0.0,
        0.0,
        1.0,
        2.220446049250313e-16,
        0.0,
        0.0,
        0.0,
        0.0,
        1.0
      ],
      "name": "Sketchfab_model"
    },
    {
      "children": [
        2,
        3
      ],
      "name": "smiley.obj.cleaner.materialmerger.gles"
    },
    {
      "mesh": 0,
      "name": "Object_2"
    },
    {
      "mesh": 1,
      "name": "Object_3"
    }
  ],
  "scene": 0,
  "scenes": [
    {
      "name": "Sketchfab_Scene",
      "nodes": [
        0
      ]
    }
  ]
}
